<svg width="164" height="48" viewBox="0 0 164 48" fill="none" xmlns="http://www.w3.org/2000/svg">
<rect width="164" height="48" rx="24" fill="#0B24F5"/>
<path d="M24.495 39.99C32.97 39.99 39.99 32.985 39.99 24.495C39.99 16.02 32.97 9 24.48 9C16.005 9 9 16.02 9 24.495C9 32.985 16.02 39.99 24.495 39.99ZM15.465 15.06C16.965 13.635 18.78 12.54 20.805 11.94C19.74 13.005 18.84 14.505 18.165 16.335C17.115 16.005 16.215 15.57 15.465 15.06ZM28.2001 11.955C30.21 12.555 32.025 13.635 33.51 15.06C32.775 15.585 31.8751 16.005 30.825 16.35C30.15 14.505 29.25 13.005 28.2001 11.955ZM25.545 12.435C26.79 13.035 27.93 14.655 28.74 16.86C27.75 17.04 26.685 17.145 25.545 17.19V12.435ZM20.25 16.86C21.075 14.655 22.2001 13.035 23.445 12.435V17.19C22.305 17.145 21.24 17.04 20.25 16.86ZM11.445 23.4451C11.655 20.895 12.615 18.54 14.085 16.605C15 17.28 16.185 17.865 17.565 18.3C17.175 19.86 16.92 21.5999 16.845 23.4451H11.445ZM32.145 23.4451C32.07 21.5999 31.815 19.86 31.425 18.3C32.805 17.865 33.99 17.295 34.89 16.605C36.375 18.54 37.335 20.895 37.545 23.4451H32.145ZM18.99 23.4451C19.065 21.81 19.29 20.25 19.635 18.84C20.835 19.08 22.1099 19.23 23.445 19.29V23.4451H18.99ZM25.545 23.4451V19.29C26.88 19.23 28.155 19.08 29.355 18.84C29.7 20.25 29.925 21.81 30 23.4451H25.545ZM11.445 25.545H16.845C16.92 27.42 17.175 29.175 17.565 30.75C16.2 31.185 15.03 31.755 14.13 32.43C12.63 30.4799 11.655 28.11 11.445 25.545ZM18.99 25.545H23.445V29.775C22.125 29.835 20.835 29.985 19.65 30.21C19.29 28.785 19.05 27.195 18.99 25.545ZM25.545 29.775V25.545H30C29.94 27.195 29.7 28.785 29.34 30.21C28.155 29.985 26.88 29.835 25.545 29.775ZM31.425 30.75C31.83 29.175 32.07 27.42 32.145 25.545H37.545C37.335 28.11 36.3601 30.4799 34.86 32.43C33.9601 31.755 32.79 31.185 31.425 30.75ZM25.545 31.875C26.6699 31.9199 27.735 32.025 28.71 32.205C27.9 34.365 26.775 35.97 25.545 36.555V31.875ZM20.28 32.205C21.255 32.025 22.32 31.9199 23.445 31.875V36.555C22.215 35.97 21.09 34.365 20.28 32.205ZM15.51 33.975C16.245 33.465 17.145 33.0451 18.18 32.715C18.855 34.515 19.74 35.985 20.775 37.035C18.795 36.435 16.995 35.3701 15.51 33.975ZM30.81 32.715C31.845 33.0451 32.745 33.465 33.4801 33.975C31.995 35.3701 30.1949 36.435 28.215 37.035C29.25 35.985 30.135 34.515 30.81 32.715Z" fill="white"/>
<path d="M58.64 17.04H56.68V31.5H65V29.68H58.64V17.04ZM67.7292 19.4C68.4092 19.4 68.9692 18.84 68.9692 18.16C68.9692 17.46 68.4092 16.92 67.7292 16.92C67.0492 16.92 66.4892 17.46 66.4892 18.16C66.4892 18.84 67.0492 19.4 67.7292 19.4ZM66.8092 31.5H68.6892V21.72H66.8092V31.5ZM74.1586 31.5H76.0186L80.0986 21.72H78.1386L75.9586 27.18C75.6186 28.04 75.2986 28.88 75.1386 29.52C74.9786 28.92 74.6986 28.1 74.3586 27.18L72.2186 21.72H70.2186L74.1586 31.5ZM85.3652 31.74C87.7852 31.74 89.4252 30.56 89.9052 28.46H88.1452C87.8252 29.58 86.8652 30.18 85.4052 30.18C83.5452 30.18 82.4652 29.04 82.3252 26.98L89.8852 26.96V26.26C89.8852 23.36 88.0652 21.44 85.2852 21.44C82.4452 21.44 80.5052 23.56 80.5052 26.62C80.5052 29.66 82.4852 31.74 85.3652 31.74ZM85.2852 23.02C86.9452 23.02 88.0052 24.1 88.0052 25.72H82.3652C82.6052 24 83.6452 23.02 85.2852 23.02ZM101.374 31.74C102.934 31.74 104.254 31.06 104.894 29.72L105.054 31.5H106.734V16.78H104.874V23.3C104.214 22.1 102.954 21.44 101.454 21.44C98.5538 21.44 96.8138 23.64 96.8138 26.64C96.8138 29.62 98.5338 31.74 101.374 31.74ZM101.754 30.04C99.8338 30.04 98.7138 28.6 98.7138 26.58C98.7138 24.58 99.8338 23.14 101.754 23.14C103.674 23.14 104.854 24.58 104.854 26.58C104.854 28.62 103.674 30.04 101.754 30.04ZM113.666 31.74C116.086 31.74 117.726 30.56 118.206 28.46H116.446C116.126 29.58 115.166 30.18 113.706 30.18C111.846 30.18 110.766 29.04 110.626 26.98L118.186 26.96V26.26C118.186 23.36 116.366 21.44 113.586 21.44C110.746 21.44 108.806 23.56 108.806 26.62C108.806 29.66 110.786 31.74 113.666 31.74ZM113.586 23.02C115.246 23.02 116.306 24.1 116.306 25.72H110.666C110.906 24 111.946 23.02 113.586 23.02ZM122.166 31.5V25.7C122.166 24.14 123.106 23.16 124.526 23.16C125.846 23.16 126.686 24 126.686 25.54V31.5H128.546V25.7C128.546 24.14 129.486 23.14 130.906 23.14C132.226 23.14 133.086 24.02 133.086 25.56V31.5H134.926V25.1C134.926 22.84 133.566 21.44 131.326 21.44C129.806 21.44 128.626 22.2 128.166 23.42C127.666 22.2 126.586 21.44 125.066 21.44C123.686 21.44 122.646 22.08 122.146 23L121.966 21.72H120.286V31.5H122.166ZM136.892 26.6C136.892 29.62 139.052 31.74 141.992 31.74C144.912 31.74 147.072 29.62 147.072 26.6C147.072 23.58 144.912 21.46 141.992 21.46C139.052 21.46 136.892 23.58 136.892 26.6ZM138.792 26.6C138.792 24.56 140.092 23.14 141.992 23.14C143.872 23.14 145.192 24.56 145.192 26.6C145.192 28.64 143.872 30.06 141.992 30.06C140.092 30.06 138.792 28.64 138.792 26.6Z" fill="white"/>
</svg>
