<svg width="200" height="48" viewBox="0 0 200 48" fill="none" xmlns="http://www.w3.org/2000/svg">
<rect width="200" height="48" rx="24" fill="#F5F5F5"/>
<path d="M18.6452 33.7684C18.6452 33.6363 18.5161 33.5042 18.3226 33.5042C18.129 33.5042 18 33.6363 18 33.7684C18 33.9006 18.129 34.0327 18.3226 33.9667C18.5161 33.9667 18.6452 33.9006 18.6452 33.7684ZM16.6452 33.4381C16.6452 33.5702 16.7742 33.7684 16.9677 33.7684C17.0968 33.8345 17.2903 33.7684 17.3548 33.6363C17.3548 33.5042 17.2903 33.372 17.0968 33.3059C16.9032 33.2399 16.7097 33.3059 16.6452 33.4381ZM19.5484 33.372C19.3548 33.372 19.2258 33.5042 19.2258 33.7024C19.2258 33.8345 19.4194 33.9006 19.6129 33.8345C19.8065 33.7684 19.9355 33.7024 19.871 33.5702C19.871 33.4381 19.6774 33.3059 19.5484 33.372ZM23.7419 8C14.8387 8 8 15.0037 8 24.1218C8 31.4559 12.4516 37.7328 18.9032 39.9793C19.7419 40.1115 20 39.5829 20 39.1864C20 38.7239 20 36.4774 20 35.0899C20 35.0899 15.4839 36.081 14.5161 33.1077C14.5161 33.1077 13.8065 31.1916 12.7742 30.7291C12.7742 30.7291 11.2903 29.6719 12.8387 29.6719C12.8387 29.6719 14.4516 29.8041 15.3548 31.3898C16.7742 33.9667 19.0968 33.2399 20.0645 32.7774C20.1935 31.7202 20.5806 30.9934 21.0968 30.5309C17.4839 30.1344 13.8065 29.6059 13.8065 23.2629C13.8065 21.4128 14.3226 20.5539 15.3548 19.3645C15.1613 18.902 14.6452 17.1841 15.5484 14.8716C16.8387 14.4751 20 16.6556 20 16.6556C21.2903 16.2591 22.6452 16.127 24 16.127C25.4194 16.127 26.7742 16.2591 28.0645 16.6556C28.0645 16.6556 31.1613 14.4091 32.5161 14.8716C33.4194 17.1841 32.8387 18.902 32.7097 19.3645C33.7419 20.5539 34.3871 21.4128 34.3871 23.2629C34.3871 29.6059 30.5806 30.1344 26.9677 30.5309C27.5484 31.0595 28.0645 32.0506 28.0645 33.6363C28.0645 35.8167 28 38.5918 28 39.1204C28 39.5829 28.3226 40.1115 29.1613 39.9132C35.6129 37.7328 40 31.4559 40 24.1218C40 15.0037 32.7097 8 23.7419 8ZM14.2581 30.7952C14.129 30.8612 14.1935 31.0595 14.2581 31.1916C14.3871 31.2577 14.5161 31.3237 14.6452 31.2577C14.7097 31.1916 14.7097 30.9934 14.5806 30.8612C14.4516 30.7952 14.3226 30.7291 14.2581 30.7952ZM13.5484 30.2666C13.4839 30.3987 13.5484 30.4648 13.6774 30.5309C13.8065 30.5969 13.9355 30.5969 14 30.4648C14 30.3987 13.9355 30.3327 13.8065 30.2666C13.6774 30.2005 13.6129 30.2005 13.5484 30.2666ZM15.6129 32.6452C15.5484 32.7113 15.5484 32.9095 15.7419 33.0416C15.871 33.1738 16.0645 33.2399 16.129 33.1077C16.1935 33.0416 16.1935 32.8434 16.0645 32.7113C15.9355 32.5791 15.7419 32.5131 15.6129 32.6452ZM14.9032 31.6541C14.7742 31.7202 14.7742 31.9184 14.9032 32.0506C15.0323 32.1827 15.1613 32.2488 15.2903 32.1827C15.3548 32.1166 15.3548 31.9184 15.2903 31.7863C15.1613 31.6541 15.0323 31.588 14.9032 31.6541Z" fill="#333333"/>
<path d="M60.7 31.5H62.74L68.18 17.04H66.14L62.64 26.26C62.4 26.9 62.06 27.86 61.72 29C61.42 27.92 61.14 27.1 60.82 26.28L57.3 17.04H55.2L60.7 31.5ZM70.6589 19.4C71.3389 19.4 71.8989 18.84 71.8989 18.16C71.8989 17.46 71.3389 16.92 70.6589 16.92C69.9789 16.92 69.4189 17.46 69.4189 18.16C69.4189 18.84 69.9789 19.4 70.6589 19.4ZM69.7389 31.5H71.6189V21.72H69.7389V31.5ZM78.5683 31.74C80.9883 31.74 82.6283 30.56 83.1083 28.46H81.3483C81.0283 29.58 80.0683 30.18 78.6083 30.18C76.7483 30.18 75.6683 29.04 75.5283 26.98L83.0883 26.96V26.26C83.0883 23.36 81.2683 21.44 78.4883 21.44C75.6483 21.44 73.7083 23.56 73.7083 26.62C73.7083 29.66 75.6883 31.74 78.5683 31.74ZM78.4883 23.02C80.1483 23.02 81.2083 24.1 81.2083 25.72H75.5683C75.8083 24 76.8483 23.02 78.4883 23.02ZM86.9561 31.5H88.8161L90.5161 26.28C90.8761 25.1 91.0561 24.46 91.1561 23.98C91.2561 24.52 91.4561 25.28 91.7761 26.26L93.4761 31.5H95.2561L98.5961 21.72H96.6361L94.9961 26.8C94.7161 27.66 94.5361 28.34 94.3761 29.12C94.2161 28.42 93.8961 27.28 93.7361 26.8L92.1161 21.72H90.1961L88.5561 26.8C88.3361 27.44 88.0761 28.26 87.9161 29.12C87.7361 28.26 87.5361 27.52 87.3161 26.8L85.6961 21.72H83.7561L86.9561 31.5ZM108.436 31.5V23.3H110.356V21.72H108.436V18.66H106.556V21.72H104.636V23.3H106.556V31.5H108.436ZM113.924 31.48V26.16C113.924 24.48 114.904 23.16 116.724 23.16C118.124 23.16 119.064 23.96 119.064 25.94V31.5H120.944V25.52C120.944 23.02 119.744 21.44 117.244 21.44C115.724 21.44 114.544 22.16 113.924 23.22V16.78H112.044V31.48H113.924ZM127.768 31.74C130.188 31.74 131.828 30.56 132.308 28.46H130.548C130.228 29.58 129.268 30.18 127.808 30.18C125.948 30.18 124.868 29.04 124.728 26.98L132.287 26.96V26.26C132.287 23.36 130.468 21.44 127.688 21.44C124.848 21.44 122.908 23.56 122.908 26.62C122.908 29.66 124.888 31.74 127.768 31.74ZM127.688 23.02C129.348 23.02 130.408 24.1 130.408 25.72H124.768C125.008 24 126.048 23.02 127.688 23.02ZM139.216 26.62C139.216 29.7 141.116 31.74 143.996 31.74C146.356 31.74 148.176 30.32 148.556 28.2H146.676C146.336 29.36 145.336 30.06 143.996 30.06C142.216 30.06 141.076 28.7 141.076 26.6C141.076 24.48 142.296 23.12 144.076 23.12C145.336 23.12 146.336 23.78 146.656 25.02H148.536C148.196 22.84 146.476 21.44 144.016 21.44C141.156 21.44 139.216 23.56 139.216 26.62ZM149.9 26.6C149.9 29.62 152.06 31.74 155 31.74C157.92 31.74 160.08 29.62 160.08 26.6C160.08 23.58 157.92 21.46 155 21.46C152.06 21.46 149.9 23.58 149.9 26.6ZM151.8 26.6C151.8 24.56 153.1 23.14 155 23.14C156.88 23.14 158.2 24.56 158.2 26.6C158.2 28.64 156.88 30.06 155 30.06C153.1 30.06 151.8 28.64 151.8 26.6ZM166.081 31.74C167.641 31.74 168.961 31.06 169.601 29.72L169.761 31.5H171.441V16.78H169.581V23.3C168.921 22.1 167.661 21.44 166.161 21.44C163.261 21.44 161.521 23.64 161.521 26.64C161.521 29.62 163.241 31.74 166.081 31.74ZM166.461 30.04C164.541 30.04 163.421 28.6 163.421 26.58C163.421 24.58 164.541 23.14 166.461 23.14C168.381 23.14 169.561 24.58 169.561 26.58C169.561 28.62 168.381 30.04 166.461 30.04ZM178.373 31.74C180.793 31.74 182.433 30.56 182.913 28.46H181.153C180.833 29.58 179.873 30.18 178.413 30.18C176.553 30.18 175.473 29.04 175.333 26.98L182.893 26.96V26.26C182.893 23.36 181.073 21.44 178.293 21.44C175.453 21.44 173.513 23.56 173.513 26.62C173.513 29.66 175.493 31.74 178.373 31.74ZM178.293 23.02C179.953 23.02 181.013 24.1 181.013 25.72H175.373C175.613 24 176.653 23.02 178.293 23.02Z" fill="#333333"/>
</svg>
