<svg id="visual" viewBox="0 0 900 600" width="900" height="600" xmlns="http://www.w3.org/2000/svg" xmlns:xlink="http://www.w3.org/1999/xlink" version="1.1"><rect width="900" height="600" fill="#ee0f76"></rect><g><g transform="translate(232 21)"><path d="M85.5 -68.3C107.1 -41 118.5 -5.7 112 26.7C105.5 59 81.1 88.4 50 103.2C18.8 118 -19.1 118.2 -49.1 103.2C-79.1 88.3 -101.2 58.2 -110.6 23.4C-120.1 -11.4 -116.8 -51 -96.3 -78C-75.7 -105.1 -37.9 -119.5 -3 -117.1C31.9 -114.8 63.8 -95.6 85.5 -68.3Z" fill="#dbd8b0"></path></g><g transform="translate(443 555)"><path d="M65.3 -53.5C80.9 -32.4 87.4 -5.5 81.6 18.1C75.8 41.8 57.8 62.1 34.5 74.4C11.2 86.7 -17.3 91 -39.3 80.7C-61.2 70.5 -76.6 45.7 -81.6 19.8C-86.6 -6.1 -81.2 -33.3 -65.9 -54.3C-50.5 -75.3 -25.3 -90.2 -0.2 -90C24.8 -89.8 49.6 -74.6 65.3 -53.5Z" fill="#dbd8b0"></path></g><g transform="translate(787 67)"><path d="M46.8 -36.9C58.4 -22.8 64 -3.5 60.3 14.2C56.6 31.9 43.7 47.9 26.9 56.2C10 64.4 -10.7 64.9 -26.9 56.8C-43.1 48.6 -54.7 31.9 -57.9 14.2C-61.2 -3.5 -56.1 -22.1 -45.1 -36.1C-34.1 -50.1 -17 -59.5 0.3 -59.8C17.6 -60 35.2 -51.1 46.8 -36.9Z" fill="#dbd8b0"></path></g><g transform="translate(143 473)"><path d="M56.2 -44.4C70 -27.4 76.6 -4.2 72.5 17.6C68.3 39.4 53.5 59.8 33.4 69.5C13.4 79.3 -11.9 78.3 -31.4 67.9C-50.9 57.5 -64.6 37.7 -70.1 15.4C-75.7 -6.8 -73 -31.5 -60 -48.3C-46.9 -65.1 -23.5 -74.2 -1.2 -73.3C21.2 -72.3 42.3 -61.5 56.2 -44.4Z" fill="#dbd8b0"></path></g></g></svg>