<svg id="visual" viewBox="0 0 900 600" width="900" height="600" xmlns="http://www.w3.org/2000/svg" xmlns:xlink="http://www.w3.org/1999/xlink" version="1.1"><rect width="900" height="600" fill="#ec69a5"></rect><g><g transform="translate(886 497)"><path d="M103.1 -56C122.2 -26.6 118.2 19.7 97.2 51C76.1 82.2 38.1 98.5 1.6 97.6C-34.9 96.7 -69.9 78.6 -90.4 47.6C-111 16.6 -117.3 -27.4 -99.8 -55.9C-82.4 -84.4 -41.2 -97.4 0.4 -97.6C42.1 -97.9 84.1 -85.4 103.1 -56Z" stroke="#ebc09c" fill="none" stroke-width="20"></path></g><g transform="translate(534 178)"><path d="M84.4 -45.3C101 -20.1 100.1 18.6 83.1 48C66.2 77.4 33.1 97.6 0.3 97.4C-32.5 97.2 -65 76.7 -78.4 49.4C-91.7 22 -86.1 -12.2 -69.8 -37.2C-53.6 -62.3 -26.8 -78.1 3.6 -80.2C33.9 -82.3 67.9 -70.5 84.4 -45.3Z" stroke="#ebc09c" fill="none" stroke-width="20"></path></g><g transform="translate(43 502)"><path d="M82.3 -47C101.9 -13.5 109.8 27.2 94.1 54.2C78.5 81.1 39.2 94.2 4.7 91.5C-29.8 88.8 -59.6 70.2 -79 41.1C-98.4 12 -107.4 -27.6 -92.5 -58.3C-77.6 -89.1 -38.8 -111 -3.7 -108.8C31.3 -106.7 62.7 -80.5 82.3 -47Z" stroke="#ebc09c" fill="none" stroke-width="20"></path></g><g transform="translate(274 30)"><path d="M86.9 -51.4C103.6 -21.3 101.9 18.3 84.4 46.6C66.8 74.9 33.4 91.9 2.1 90.7C-29.1 89.5 -58.2 69.9 -74.8 42.2C-91.3 14.5 -95.3 -21.4 -80.7 -50.3C-66.2 -79.3 -33.1 -101.3 1 -101.9C35.1 -102.5 70.2 -81.6 86.9 -51.4Z" stroke="#ebc09c" fill="none" stroke-width="20"></path></g><g transform="translate(421 533)"><path d="M81 -49.1C96.4 -20.1 94.5 16.6 78 44.8C61.6 73 30.8 92.6 -1.6 93.6C-34 94.5 -68.1 76.7 -85.3 48.1C-102.4 19.5 -102.7 -20 -85.7 -49.9C-68.7 -79.8 -34.3 -100.1 -0.8 -99.7C32.8 -99.2 65.6 -78 81 -49.1Z" stroke="#ebc09c" fill="none" stroke-width="20"></path></g><g transform="translate(839 139)"><path d="M48.1 -29.8C58.1 -10.5 59 12 49.4 31.3C39.9 50.5 19.9 66.4 -1.4 67.2C-22.8 68.1 -45.6 53.8 -57.8 33C-70 12.2 -71.6 -15 -60.2 -35.1C-48.8 -55.2 -24.4 -68.1 -2.7 -66.6C19.1 -65.1 38.1 -49 48.1 -29.8Z" stroke="#ebc09c" fill="none" stroke-width="20"></path></g><g transform="translate(11 164)"><path d="M86.1 -49.7C102.8 -20.8 101.6 18.6 84.2 48.9C66.9 79.3 33.4 100.6 -3.3 102.5C-40 104.4 -80 86.8 -95.7 57.4C-111.4 28 -102.8 -13.2 -82.8 -44C-62.8 -74.8 -31.4 -95.2 1.6 -96.2C34.7 -97.1 69.4 -78.6 86.1 -49.7Z" stroke="#ebc09c" fill="none" stroke-width="20"></path></g></g></svg>