<svg id="visual" viewBox="0 0 900 600" width="900" height="600" xmlns="http://www.w3.org/2000/svg" xmlns:xlink="http://www.w3.org/1999/xlink" version="1.1"><rect width="900" height="600" fill="#ec69a5"></rect><g><g transform="translate(886 497)"><path d="M92.9 -28.9C106.3 10.9 93.2 60.7 61 84.1C28.8 107.5 -22.6 104.7 -56.5 79.6C-90.4 54.6 -106.8 7.3 -94.5 -31.1C-82.2 -69.5 -41.1 -99 -0.7 -98.8C39.8 -98.6 79.6 -68.7 92.9 -28.9Z" stroke="#ebc09c" fill="none" stroke-width="20"></path></g><g transform="translate(534 178)"><path d="M83.2 -29.4C93.1 3.4 76.2 42.5 47.8 62.3C19.4 82.1 -20.5 82.6 -46.9 63.6C-73.4 44.6 -86.4 6.2 -76.4 -26.9C-66.3 -60 -33.1 -87.6 1.8 -88.2C36.7 -88.7 73.3 -62.2 83.2 -29.4Z" stroke="#ebc09c" fill="none" stroke-width="20"></path></g><g transform="translate(43 502)"><path d="M96.3 -29.4C107.9 4.6 89 50.5 56 73.6C23.1 96.7 -23.9 97.1 -53 75.3C-82.2 53.6 -93.6 9.7 -81.8 -24.5C-70 -58.6 -35 -83.1 3.6 -84.3C42.3 -85.5 84.6 -63.4 96.3 -29.4Z" stroke="#ebc09c" fill="none" stroke-width="20"></path></g><g transform="translate(274 30)"><path d="M71.2 -26.3C81.6 9 72.1 47.5 45.6 68C19 88.6 -24.4 91 -51.1 71.4C-77.7 51.8 -87.4 10.1 -76.1 -26.4C-64.7 -62.9 -32.4 -94.2 -1 -93.8C30.4 -93.5 60.8 -61.6 71.2 -26.3Z" stroke="#ebc09c" fill="none" stroke-width="20"></path></g><g transform="translate(421 533)"><path d="M81.1 -29.8C91.4 5.4 76.7 45.3 49.6 64C22.5 82.7 -17 80.2 -45.4 60.1C-73.7 40 -91.1 2.4 -81.7 -31.6C-72.3 -65.5 -36.1 -95.8 -0.4 -95.7C35.4 -95.5 70.8 -65 81.1 -29.8Z" stroke="#ebc09c" fill="none" stroke-width="20"></path></g><g transform="translate(839 139)"><path d="M56.2 -19.1C63.8 5.3 54.8 34.2 34.5 49.3C14.2 64.5 -17.3 65.9 -37.4 51.3C-57.5 36.8 -66.1 6.2 -58 -18.8C-49.8 -43.8 -24.9 -63.3 -0.3 -63.2C24.3 -63.1 48.5 -43.4 56.2 -19.1Z" stroke="#ebc09c" fill="none" stroke-width="20"></path></g><g transform="translate(11 164)"><path d="M95.6 -26.6C108.9 9.9 94.4 59.9 60.4 85C26.5 110 -26.8 110.2 -57.5 86.2C-88.2 62.3 -96.2 14.2 -82.9 -22.3C-69.5 -58.8 -34.8 -83.8 3.2 -84.8C41.2 -85.9 82.3 -63 95.6 -26.6Z" stroke="#ebc09c" fill="none" stroke-width="20"></path></g></g></svg>