<svg id="visual" viewBox="0 0 900 600" width="900" height="600" xmlns="http://www.w3.org/2000/svg" xmlns:xlink="http://www.w3.org/1999/xlink" version="1.1"><path d="M0 115L82 79L164 73L245 67L327 127L409 163L491 133L573 67L655 73L736 97L818 133L900 151L900 0L818 0L736 0L655 0L573 0L491 0L409 0L327 0L245 0L164 0L82 0L0 0Z" fill="#78e3e6"></path><path d="M0 187L82 145L164 163L245 151L327 175L409 211L491 187L573 139L655 139L736 193L818 229L900 205L900 149L818 131L736 95L655 71L573 65L491 131L409 161L327 125L245 65L164 71L82 77L0 113Z" fill="#33d0f4"></path><path d="M0 361L82 385L164 265L245 361L327 307L409 427L491 295L573 361L655 343L736 397L818 421L900 409L900 203L818 227L736 191L655 137L573 137L491 185L409 209L327 173L245 149L164 161L82 143L0 185Z" fill="#00b8ff"></path><path d="M0 463L82 451L164 349L245 421L327 397L409 487L491 409L573 463L655 391L736 499L818 499L900 499L900 407L818 419L736 395L655 341L573 359L491 293L409 425L327 305L245 359L164 263L82 383L0 359Z" fill="#6992ff"></path><path d="M0 601L82 601L164 601L245 601L327 601L409 601L491 601L573 601L655 601L736 601L818 601L900 601L900 497L818 497L736 497L655 389L573 461L491 407L409 485L327 395L245 419L164 347L82 449L0 461Z" fill="#f40ced"></path></svg>