<svg id="visual" viewBox="0 0 900 600" width="900" height="600" xmlns="http://www.w3.org/2000/svg" xmlns:xlink="http://www.w3.org/1999/xlink" version="1.1"><path d="M0 61L75 121L150 79L225 73L300 61L375 49L450 73L525 85L600 55L675 85L750 55L825 97L900 79L900 0L825 0L750 0L675 0L600 0L525 0L450 0L375 0L300 0L225 0L150 0L75 0L0 0Z" fill="#78e3e6"></path><path d="M0 271L75 235L150 229L225 181L300 169L375 205L450 187L525 199L600 295L675 235L750 235L825 259L900 301L900 77L825 95L750 53L675 83L600 53L525 83L450 71L375 47L300 59L225 71L150 77L75 119L0 59Z" fill="#33d0f4"></path><path d="M0 361L75 355L150 361L225 253L300 313L375 307L450 295L525 331L600 367L675 367L750 385L825 385L900 409L900 299L825 257L750 233L675 233L600 293L525 197L450 185L375 203L300 167L225 179L150 227L75 233L0 269Z" fill="#00b8ff"></path><path d="M0 529L75 559L150 559L225 511L300 505L375 505L450 541L525 517L600 529L675 511L750 511L825 523L900 535L900 407L825 383L750 383L675 365L600 365L525 329L450 293L375 305L300 311L225 251L150 359L75 353L0 359Z" fill="#6992ff"></path><path d="M0 601L75 601L150 601L225 601L300 601L375 601L450 601L525 601L600 601L675 601L750 601L825 601L900 601L900 533L825 521L750 509L675 509L600 527L525 515L450 539L375 503L300 503L225 509L150 557L75 557L0 527Z" fill="#f40ced"></path></svg>