<svg id="visual" viewBox="0 0 900 600" width="900" height="600" xmlns="http://www.w3.org/2000/svg" xmlns:xlink="http://www.w3.org/1999/xlink" version="1.1"><path d="M0 115L82 109L164 85L245 115L327 73L409 121L491 121L573 91L655 109L736 91L818 97L900 127L900 0L818 0L736 0L655 0L573 0L491 0L409 0L327 0L245 0L164 0L82 0L0 0Z" fill="#78e3e6"></path><path d="M0 157L82 205L164 139L245 163L327 157L409 211L491 181L573 157L655 169L736 151L818 193L900 181L900 125L818 95L736 89L655 107L573 89L491 119L409 119L327 71L245 113L164 83L82 107L0 113Z" fill="#33d0f4"></path><path d="M0 259L82 355L164 367L245 343L327 325L409 373L491 277L573 397L655 349L736 355L818 379L900 385L900 179L818 191L736 149L655 167L573 155L491 179L409 209L327 155L245 161L164 137L82 203L0 155Z" fill="#00b8ff"></path><path d="M0 487L82 499L164 499L245 481L327 523L409 529L491 493L573 541L655 523L736 499L818 541L900 481L900 383L818 377L736 353L655 347L573 395L491 275L409 371L327 323L245 341L164 365L82 353L0 257Z" fill="#6992ff"></path><path d="M0 601L82 601L164 601L245 601L327 601L409 601L491 601L573 601L655 601L736 601L818 601L900 601L900 479L818 539L736 497L655 521L573 539L491 491L409 527L327 521L245 479L164 497L82 497L0 485Z" fill="#f40ced"></path></svg>