<svg id="visual" viewBox="0 0 900 600" width="900" height="600" xmlns="http://www.w3.org/2000/svg" xmlns:xlink="http://www.w3.org/1999/xlink" version="1.1"><path d="M0 79L82 55L164 61L245 115L327 109L409 73L491 115L573 79L655 67L736 103L818 73L900 85L900 0L818 0L736 0L655 0L573 0L491 0L409 0L327 0L245 0L164 0L82 0L0 0Z" fill="#78e3e6"></path><path d="M0 307L82 193L164 295L245 223L327 289L409 235L491 325L573 337L655 337L736 289L818 283L900 253L900 83L818 71L736 101L655 65L573 77L491 113L409 71L327 107L245 113L164 59L82 53L0 77Z" fill="#33d0f4"></path><path d="M0 415L82 409L164 403L245 439L327 475L409 439L491 427L573 451L655 457L736 481L818 463L900 421L900 251L818 281L736 287L655 335L573 335L491 323L409 233L327 287L245 221L164 293L82 191L0 305Z" fill="#00b8ff"></path><path d="M0 553L82 511L164 535L245 523L327 535L409 511L491 541L573 559L655 547L736 547L818 553L900 541L900 419L818 461L736 479L655 455L573 449L491 425L409 437L327 473L245 437L164 401L82 407L0 413Z" fill="#6992ff"></path><path d="M0 601L82 601L164 601L245 601L327 601L409 601L491 601L573 601L655 601L736 601L818 601L900 601L900 539L818 551L736 545L655 545L573 557L491 539L409 509L327 533L245 521L164 533L82 509L0 551Z" fill="#f40ced"></path></svg>